<?xml version="1.0" encoding="utf-8"?>
<!-- Generator: Adobe Illustrator 24.0.0, SVG Export Plug-In . SVG Version: 6.00 Build 0)  -->
<svg version="1.1" id="Layer_1" xmlns="http://www.w3.org/2000/svg" xmlns:xlink="http://www.w3.org/1999/xlink" x="0px" y="0px"
	 viewBox="0 0 256 256" style="enable-background:new 0 0 256 256;" xml:space="preserve">
<style type="text/css">
	.st0{fill:#FFB69F;}
	.st1{fill:#72C2E9;}
	.st2{fill:#C2E5FF;}
	.st3{fill:#FC5D3D;}
	.st4{fill:#AFAFAF;}
	.st5{fill:#FFCBC3;}
	.st6{fill:#F0C020;}
	.st7{fill:#F8E5B0;}
	.st8{fill:#EFEFEF;}
	.st9{fill:#EEC21E;}
	.st10{fill:#FFFFFF;}
	.st11{fill:#F1BF21;}
	.st12{fill:#E8A61E;}
	.st13{fill:#7D7B79;}
	.st14{fill:#B34F33;}
	.st15{fill:#F8E5B2;}
	.st16{fill:#C5E5FE;}
	.st17{fill:#4C4944;}
	.st18{fill:#4BA5C8;}
	.st19{fill:#AFAEAF;}
	.st20{fill:#CF941C;}
	.st21{fill:#7C7B7A;}
	.st22{fill:#FAE0E1;}
	.st23{fill:#13BF6D;}
	.st24{fill:#76FFBB;}
	.st25{fill:#F2E1D7;}
	.st26{fill:#878787;}
	.st27{fill:#F9E5AF;}
	.st28{fill:#E8A61F;}
	.st29{fill:none;stroke:#000000;stroke-width:5;stroke-linecap:round;stroke-linejoin:round;stroke-miterlimit:10;}
	.st30{fill:#EFEFF0;}
	.st31{fill:#E8A61B;}
	.st32{fill:#EFEFEE;}
	.st33{fill:#4C4945;}
	.st34{fill:#EA8F7D;}
	.st35{fill:#D6C0B3;}
	.st36{fill:#EEC120;}
</style>
<g>
</g>
<g>
	<path class="st1" d="M244.667,55.821H58.432V43.41c0-14.395-11.67-26.054-26.055-26.054c-14.384,0-26.044,11.66-26.044,26.054
		v169.18c0,0.01,0,0.01,0,0.021c0,3.198,0.576,6.262,1.635,9.089c3.691,9.891,13.223,16.945,24.409,16.945h212.289
		c2.761,0,5-2.239,5-5V60.821C249.667,58.059,247.428,55.821,244.667,55.821z"/>
	<path class="st16" d="M236.302,227.781H97.393c-1.381,0-2.5-1.119-2.5-2.5s1.119-2.5,2.5-2.5h136.409V69.19
		c0-1.381,1.119-2.5,2.5-2.5s2.5,1.119,2.5,2.5v156.091C238.802,226.662,237.683,227.781,236.302,227.781z M87.393,227.781h-9.947
		c-1.381,0-2.5-1.119-2.5-2.5s1.119-2.5,2.5-2.5h9.947c1.381,0,2.5,1.119,2.5,2.5S88.774,227.781,87.393,227.781z"/>
	<path class="st18" d="M67.69,55.82v156.77c0,5.11-4.15,9.25-9.26,9.25s-9.25-4.14-9.25-9.25c0-9.25-7.54-16.79-16.8-16.79
		c-9.27,0-16.79,7.54-16.79,16.79c0,4.52-3.25,8.3-7.55,9.1c-0.02,0-0.04,0-0.07,0.01c-1.06-2.83-1.64-5.89-1.64-9.09
		c0-0.01,0-0.01,0-0.02c0.01-13.83,10.99-25.52,25.19-26.02c14.79-0.49,26.91,11.37,26.91,26.02V55.82H67.69z"/>
	<path class="st16" d="M44.258,177.643c-2.094-0.713-4.276-1.24-6.485-1.566c-1.366-0.201-2.31-1.471-2.109-2.837
		c0.201-1.366,1.469-2.313,2.837-2.109c1.367,0.201,2.725,0.471,4.063,0.805V43.414c0-1.381,1.119-2.5,2.5-2.5s2.5,1.119,2.5,2.5
		v131.863C47.564,176.987,45.879,178.196,44.258,177.643z M17.332,176.08c-0.445-1.307,0.254-2.727,1.561-3.172
		c2.909-0.99,5.939-1.659,9.005-1.987c1.375-0.149,2.605,0.847,2.752,2.22c0.147,1.373-0.847,2.605-2.22,2.752
		c-2.699,0.289-5.366,0.877-7.926,1.749C19.198,178.085,17.777,177.387,17.332,176.08z"/>
	<path class="st8" d="M202.423,159.507c-1.225,5.284-3.247,10.269-5.925,14.827l8.773,8.774
		c-4.743,7.207-10.867,13.431-17.989,18.273l-8.731-8.731c-4.586,2.82-9.642,4.971-15.012,6.295v12.377
		c-8.341,1.691-17.293,1.692-25.637,0v-12.377c-5.37-1.324-10.426-3.475-15.012-6.295l-8.731,8.731
		c-7.121-4.842-13.246-11.066-17.989-18.273l8.773-8.774c-2.678-4.558-4.7-9.543-5.925-14.827H86.672
		c-1.583-8.374-1.504-17.19,0.285-25.637h12.405c1.339-5.099,3.432-9.899,6.124-14.286l-8.731-8.731
		c4.843-7.121,11.067-13.246,18.273-17.989l8.774,8.774c4.344-2.564,9.073-4.515,14.1-5.768V83.508
		c8.341-1.691,17.293-1.692,25.637,0V95.87c5.028,1.253,9.756,3.205,14.1,5.768l8.774-8.774
		c7.207,4.743,13.431,10.867,18.273,17.989l-8.731,8.731c2.692,4.387,4.786,9.187,6.124,14.286h12.405
		c1.787,8.44,1.87,17.256,0.285,25.637H202.423z"/>
	<circle class="st6" cx="150.722" cy="147.415" r="38.07"/>
	<polygon class="st1" points="167.83,142.015 167.83,166.25 133.606,166.25 133.606,142.029 150.718,124.917 	"/>
	<rect x="145.532" y="151.833" class="st8" width="10.374" height="14.417"/>
	<path d="M175.35,241.14c1.38,0,2.5-1.12,2.5-2.5c0-1.37-1.12-2.49-2.5-2.49c-1.38,0-2.5,1.12-2.5,2.49
		C172.85,240.02,173.97,241.14,175.35,241.14z"/>
	<path d="M3.83,43.41v90.18c0,1.38,1.13,2.5,2.5,2.5c1.38,0,2.5-1.12,2.5-2.5V43.41c0.03-12.96,10.59-23.53,23.55-23.56
		c12.96,0.03,23.53,10.6,23.55,23.56v12.41v140.63c-5.499-8.005-14.737-12.767-24.664-12.369
		c-9.295,0.388-17.488,5.195-22.436,12.42v-42.91c0-1.37-1.12-2.49-2.5-2.49c-1.37,0-2.5,1.12-2.5,2.49v59v0.01v0.01
		c0,3.44,0.61,6.79,1.8,9.97c4.085,10.956,14.593,18.56,26.75,18.56h132.97c1.38,0,2.5-1.12,2.5-2.5c0-1.37-1.12-2.49-2.5-2.49
		H32.37c-9.77,0-18.64-6.16-22.06-15.33c-0.98-2.61-1.48-5.37-1.48-8.21v-0.02c0.01-12.74,10.02-23.08,22.78-23.53
		c14.786,0,24.301,11.346,24.32,23.53c0,1.443,1.202,2.5,2.5,2.5c1.347,0,2.5-1.083,2.5-2.5V58.32h183.74c1.37,0,2.5,1.12,2.5,2.5
		v172.82c0,1.38-1.13,2.5-2.5,2.51h-59.32c-1.38,0-2.5,1.12-2.5,2.49c0,1.38,1.12,2.51,2.5,2.51l59.32-0.01c4.13,0,7.5-3.36,7.5-7.5
		V60.82c0-4.13-3.37-7.5-7.5-7.5H60.93v-9.91c0-15.816-12.794-28.539-28.55-28.56C16.591,14.87,3.83,27.621,3.83,43.41z"/>
	<circle cx="6.33" cy="143.59" r="2.5"/>
	<path d="M137.406,213.772c8.481,1.719,17.781,1.794,26.63,0c1.166-0.236,2.003-1.261,2.003-2.45v-10.455
		c4.22-1.202,8.281-2.905,12.115-5.079l7.36,7.36c0.85,0.849,2.181,0.976,3.173,0.3c7.434-5.054,13.715-11.436,18.671-18.966
		c0.652-0.991,0.518-2.304-0.321-3.142l-7.431-7.432c2.051-3.785,3.648-7.774,4.764-11.901h10.399c1.202,0,2.233-0.855,2.457-2.036
		c1.65-8.724,1.553-17.886-0.295-26.619c-0.245-1.155-1.265-1.982-2.446-1.982h-10.513c-1.186-3.941-2.821-7.757-4.879-11.388
		l7.361-7.361c0.849-0.849,0.975-2.181,0.3-3.173c-5.055-7.434-11.436-13.715-18.966-18.671c-0.991-0.651-2.303-0.518-3.142,0.321
		l-7.429,7.429c-3.542-1.925-7.288-3.458-11.178-4.574V83.508c0-1.189-0.838-2.214-2.003-2.45c-8.623-1.748-18.007-1.748-26.63,0
		c-1.166,0.236-2.003,1.261-2.003,2.45v10.445c-3.89,1.116-7.635,2.648-11.178,4.574l-7.429-7.429
		c-0.838-0.839-2.15-0.972-3.142-0.321c-7.53,4.956-13.911,11.237-18.966,18.671c-0.675,0.993-0.549,2.325,0.3,3.173l7.361,7.362
		c-2.059,3.63-3.694,7.447-4.88,11.387H86.957c-1.181,0-2.201,0.827-2.446,1.982c-1.847,8.726-1.948,17.88-0.296,26.619
		c0.223,1.181,1.255,2.036,2.457,2.036h10.399c1.116,4.127,2.713,8.116,4.764,11.901l-7.431,7.432
		c-0.839,0.838-0.973,2.151-0.321,3.142c4.957,7.531,11.239,13.912,18.671,18.966c0.993,0.675,2.325,0.548,3.173-0.299l7.361-7.36
		c3.833,2.174,7.895,3.877,12.114,5.079v10.455C135.403,212.511,136.241,213.536,137.406,213.772z M124.201,190.521
		c-0.986-0.606-2.259-0.457-3.077,0.362l-7.245,7.244c-5.611-4.085-10.469-9.023-14.476-14.714l7.31-7.311
		c0.805-0.805,0.965-2.052,0.388-3.034c-2.598-4.423-4.498-9.176-5.645-14.125c-0.263-1.133-1.272-1.936-2.436-1.936H88.779
		c-1.051-6.812-0.97-13.839,0.238-20.637h10.345c1.136,0,2.129-0.766,2.418-1.865c1.249-4.756,3.213-9.336,5.837-13.613
		c0.605-0.986,0.455-2.258-0.363-3.075l-7.244-7.245c4.087-5.612,9.024-10.469,14.715-14.476l7.31,7.31
		c0.806,0.807,2.057,0.965,3.038,0.386c4.18-2.467,8.7-4.316,13.435-5.496c1.114-0.277,1.896-1.278,1.896-2.426V85.587
		c6.727-1.125,13.91-1.125,20.637,0v10.283c0,1.148,0.782,2.148,1.896,2.426c4.734,1.18,9.254,3.029,13.435,5.496
		c0.984,0.579,2.232,0.421,3.038-0.386l7.31-7.31c5.691,4.007,10.628,8.864,14.715,14.476l-7.244,7.245
		c-0.818,0.817-0.968,2.089-0.363,3.075c2.624,4.276,4.588,8.856,5.837,13.613c0.289,1.099,1.282,1.865,2.418,1.865h10.346
		c1.163,6.542,1.326,13.578,0.238,20.637h-10.242c-1.163,0-2.173,0.802-2.436,1.936c-1.147,4.95-3.046,9.702-5.645,14.125
		c-0.577,0.982-0.417,2.229,0.388,3.034l7.31,7.311c-4.007,5.691-8.865,10.628-14.477,14.714l-7.244-7.244
		c-0.817-0.818-2.092-0.968-3.077-0.362c-4.45,2.736-9.262,4.754-14.301,5.998c-1.117,0.275-1.901,1.277-1.901,2.427v10.297
		c-6.727,1.125-13.91,1.125-20.637,0v-10.297c0-1.15-0.785-2.152-1.901-2.427C133.462,195.275,128.651,193.257,124.201,190.521z"/>
	<path d="M179.81,122.73c0.97-0.93,1.035-2.512,0.06-3.53c-0.93-0.96-2.57-0.99-3.53-0.06c-0.99,0.96-1.02,2.55-0.06,3.54
		C177.222,123.662,178.81,123.709,179.81,122.73z"/>
	<path d="M191.29,147.41c0-6.89-1.76-13.7-5.09-19.68c-0.65-1.17-2.23-1.63-3.4-0.97c-1.2,0.67-1.64,2.19-0.97,3.4
		c2.92,5.24,4.46,11.21,4.46,17.25c0,19.593-15.831,35.56-35.57,35.58c-19.747-0.02-35.57-15.995-35.57-35.58
		c0-19.657,15.911-35.56,35.57-35.56c6.45,0,12.76,1.74,18.26,5.03c1.125,0.692,2.681,0.378,3.43-0.86
		c0.71-1.18,0.32-2.72-0.86-3.42c-6.27-3.77-13.47-5.75-20.83-5.75c-22.411,0-40.57,18.128-40.57,40.56
		c0,22.47,18.183,40.57,40.57,40.57C173.149,187.98,191.29,169.842,191.29,147.41z"/>
	<path d="M148.23,138.83v1.5c0,1.37,1.12,2.5,2.5,2.5c1.37,0,2.49-1.13,2.49-2.5v-1.5c0-1.38-1.12-2.5-2.49-2.5
		C149.35,136.33,148.23,137.45,148.23,138.83z"/>
	<path d="M133.61,168.75c12.924,0,22.748,0,34.22,0c1.381,0,2.5-1.116,2.5-2.5v-18.199l1.8,1.8c0.973,0.973,2.563,0.976,3.54,0
		c0.97-0.98,0.97-2.56,0-3.54c-0.354-0.354-23.206-23.249-23.637-23.504c-0.953-0.578-2.27-0.461-3.084,0.344
		c-25.149,25.139-23.9,23.461-23.9,24.93c0,2.311,2.784,3.24,4.27,1.77l1.79-1.79v18.19
		C131.11,167.679,132.267,168.75,133.61,168.75z M148.03,163.75v-9.42h5.37v9.42H148.03z M165.33,163.75h-6.93v-11.92
		c0-1.392-1.125-2.5-2.5-2.5h-10.37c-1.361,0-2.5,1.119-2.5,2.5v11.92h-6.92v-20.69l14.61-14.61l14.61,14.603V163.75z"/>
</g>
</svg>
