<svg xmlns="http://www.w3.org/2000/svg" viewBox="0 0 60 60"><defs><style>.cls-1{fill:#e9edf5;}.cls-2{fill:#bec3d2;}.cls-3{fill:#65b1fc;}.cls-4{fill:#87c7ff;}.cls-5{fill:#a3d4ff;}.cls-6{fill:#ffc247;}.cls-7{fill:#ffe45c;}.cls-8{fill:#ffda45;}.cls-9{opacity:0.54;}.cls-10{fill:#fff;}.cls-11{fill:#bfe1ff;}.cls-12{fill:#4a98f7;}.cls-13{fill:#2b1505;}</style></defs><title>13-Email Contact</title><g id="_13-Email_Contact" data-name="13-Email Contact"><polygon class="cls-1" points="43 54 44 57 43 58 17 58 16 57 17 54 20 54 40 54 43 54"/><path class="cls-2" d="M40,54H20c3.5-3.5,3-6,3-6H37S36.5,50.5,40,54Z"/><circle class="cls-2" cx="30" cy="42" r="2"/><path class="cls-1" d="M59,36v8a4,4,0,0,1-4,4H5a4,4,0,0,1-4-4V36ZM32,42a2,2,0,1,0-2,2A2.006,2.006,0,0,0,32,42Z"/><path class="cls-3" d="M59,6V36H1V6A4,4,0,0,1,5,2H55A4,4,0,0,1,59,6Z"/><path class="cls-4" d="M18.039,2H5A4,4,0,0,0,1,6V17.686A31.1,31.1,0,0,1,18.039,2Z"/><path class="cls-5" d="M2.092,36A37.508,37.508,0,0,1,30.911,2H18.039A31.1,31.1,0,0,0,1,17.686V36Z"/><path class="cls-6" d="M46,28a2.993,2.993,0,0,1-.88,2.12L45,30,34,19l-.35-.51L46,10Z"/><path class="cls-7" d="M46,10,33.65,18.49,30,21l-3.65-2.51L14,10a3,3,0,0,1,3-3H43A3,3,0,0,1,46,10Z"/><path class="cls-6" d="M26,19,15,30l-.12.12A2.993,2.993,0,0,1,14,28V10l12.35,8.49Z"/><path class="cls-7" d="M34,19,45,30l.12.12A2.993,2.993,0,0,1,43,31H17a2.993,2.993,0,0,1-2.12-.88L15,30,26,19l.35-.51L30,21l3.65-2.51Z"/><path class="cls-8" d="M45,30l-2.141-2.141A2.943,2.943,0,0,1,42,28H17l-2,2-.12.12A2.993,2.993,0,0,0,17,31H43a2.993,2.993,0,0,0,2.12-.88Z"/><polygon class="cls-6" points="30 24 33.65 21.49 35.333 20.333 34 19 33.65 18.49 30 21 26.35 18.49 26 19 24.667 20.333 26.35 21.49 30 24"/><g class="cls-9"><path class="cls-10" d="M20.594,7H17a3,3,0,0,0-3,3l2.021,1.389A4.577,4.577,0,0,1,20.594,7Z"/></g><circle class="cls-3" cx="6" cy="7" r="1"/><circle class="cls-11" cx="6" cy="11" r="1"/><circle class="cls-11" cx="6" cy="15" r="1"/><circle class="cls-11" cx="6" cy="19" r="1"/><circle class="cls-12" cx="6" cy="23" r="1"/><circle class="cls-12" cx="6" cy="27" r="1"/><circle class="cls-12" cx="6" cy="31" r="1"/><circle class="cls-12" cx="9" cy="29" r="1"/><circle class="cls-12" cx="9" cy="25" r="1"/><circle class="cls-12" cx="9" cy="21" r="1"/><circle class="cls-11" cx="9" cy="17" r="1"/><circle class="cls-11" cx="9" cy="13" r="1"/><circle class="cls-11" cx="9" cy="9" r="1"/><circle class="cls-12" cx="51" cy="29" r="1"/><circle class="cls-12" cx="51" cy="25" r="1"/><circle class="cls-12" cx="51" cy="21" r="1"/><circle class="cls-12" cx="51" cy="17" r="1"/><circle class="cls-12" cx="51" cy="13" r="1"/><circle class="cls-12" cx="51" cy="9" r="1"/><circle class="cls-12" cx="54" cy="7" r="1"/><circle class="cls-12" cx="54" cy="11" r="1"/><circle class="cls-12" cx="54" cy="15" r="1"/><circle class="cls-12" cx="54" cy="19" r="1"/><circle class="cls-12" cx="54" cy="23" r="1"/><circle class="cls-12" cx="54" cy="27" r="1"/><circle class="cls-12" cx="54" cy="31" r="1"/><path class="cls-13" d="M55,1H5A5.006,5.006,0,0,0,0,6V44a5.006,5.006,0,0,0,5,5H21.948a8.437,8.437,0,0,1-2.37,4H17a1,1,0,0,0-.949.684l-1,3a1,1,0,0,0,.242,1.023l1,1A1,1,0,0,0,17,59H43a1,1,0,0,0,.707-.293l1-1a1,1,0,0,0,.242-1.023l-1-3A1,1,0,0,0,43,53H40.422a8.478,8.478,0,0,1-2.373-4H55a5.006,5.006,0,0,0,5-5V6A5.006,5.006,0,0,0,55,1ZM5,3H55a3,3,0,0,1,3,3V35H2V6A3,3,0,0,1,5,3ZM42.856,56.73l-.27.27H17.414l-.27-.27L17.721,55H42.279ZM37.813,53H22.187a8.652,8.652,0,0,0,1.795-4H36.018A8.652,8.652,0,0,0,37.813,53ZM55,47H5a3,3,0,0,1-3-3V37H58v7A3,3,0,0,1,55,47Z"/><path class="cls-13" d="M30,39a3,3,0,1,0,3,3A3,3,0,0,0,30,39Zm0,4a1,1,0,1,1,1-1A1,1,0,0,1,30,43Z"/><path class="cls-13" d="M17,32H43a4,4,0,0,0,4-4V10c0-.068-.017-.132-.02-.2v0A4,4,0,0,0,43,6H17a4,4,0,0,0-3.98,3.8h0c0,.067-.02.131-.02.2V28a4,4,0,0,0,4,4Zm7.887-13.3-9.812,9.812A1.979,1.979,0,0,1,15,28V11.9ZM17,30a1.979,1.979,0,0,1-.511-.075L26.563,19.851l2.871,1.973a1,1,0,0,0,1.132,0l2.871-1.973L43.511,29.925A1.979,1.979,0,0,1,43,30Zm28-2a1.979,1.979,0,0,1-.075.511L35.113,18.7,45,11.9ZM17,8H43a2,2,0,0,1,1.935,1.519L30,19.787,15.065,9.519A2,2,0,0,1,17,8Z"/></g></svg>