<svg xmlns="http://www.w3.org/2000/svg" viewBox="0 0 48 48"><defs><style>.cls-1{fill:#6fabe6;}.cls-2{fill:#9fdbf3;}.cls-3{fill:#425b72;}.cls-4{fill:#82bcf4;}.cls-5{fill:#b2e5fb;}</style></defs><title>Teamwork</title><g id="Teamwork"><rect class="cls-1" x="21" y="5" width="6" height="7" rx="3"/><path class="cls-1" d="M20.51,15.58h0a3,3,0,0,0-2.51,3V23H30V18.54a3,3,0,0,0-2.51-3h0A21.51,21.51,0,0,0,20.51,15.58Z"/><rect class="cls-2" x="38" y="25" width="6" height="7" rx="3"/><path class="cls-2" d="M37.51,35.58h0a3,3,0,0,0-2.51,3V43H47V38.54a3,3,0,0,0-2.51-3h0A21.51,21.51,0,0,0,37.51,35.58Z"/><rect class="cls-2" x="4" y="25" width="6" height="7" rx="3"/><path class="cls-2" d="M3.51,35.58h0a3,3,0,0,0-2.51,3V43H13V38.54a3,3,0,0,0-2.51-3h0A21.51,21.51,0,0,0,3.51,35.58Z"/><path class="cls-3" d="M24,34a1,1,0,0,1-1-1V29a1,1,0,0,1,2,0v4A1,1,0,0,1,24,34Z"/><path class="cls-3" d="M20.54,36a1,1,0,0,1-.5-1.87l3.46-2a1,1,0,0,1,1,1.74l-3.46,2A1,1,0,0,1,20.54,36Z"/><path class="cls-3" d="M27.46,36a1,1,0,0,1-.5-.13l-3.46-2a1,1,0,1,1,1-1.74l3.46,2a1,1,0,0,1-.5,1.87Z"/><path class="cls-4" d="M27,8V9a1,1,0,0,1,0,.24A3,3,0,0,1,22,7V6a1,1,0,0,1,0-.24A3,3,0,0,1,27,8Z"/><path class="cls-4" d="M30,18.54V21H25.46A4.46,4.46,0,0,1,21,16.54h0a2.84,2.84,0,0,1,.19-1A18.86,18.86,0,0,1,24,15.3a19.85,19.85,0,0,1,3.18.24l.31,0A3,3,0,0,1,30,18.54Z"/><path class="cls-5" d="M44,28v1a1,1,0,0,1,0,.24A3,3,0,0,1,39,27V26a1,1,0,0,1,0-.24A3,3,0,0,1,44,28Z"/><path class="cls-5" d="M47,38.54V41H42.46A4.46,4.46,0,0,1,38,36.54h0a2.84,2.84,0,0,1,.19-1A18.86,18.86,0,0,1,41,35.3a19.85,19.85,0,0,1,3.18.24l.31,0A3,3,0,0,1,47,38.54Z"/><path class="cls-5" d="M10,28v1a1,1,0,0,1,0,.24A3,3,0,0,1,5,27V26a1,1,0,0,1,0-.24A3,3,0,0,1,10,28Z"/><path class="cls-5" d="M13,38.54V41H8.46A4.46,4.46,0,0,1,4,36.54H4a2.84,2.84,0,0,1,.19-1A18.86,18.86,0,0,1,7,35.3a19.85,19.85,0,0,1,3.18.24l.31,0A3,3,0,0,1,13,38.54Z"/></g></svg>